# xmcd CD database file
#
# Track frame offsets:
#	182
#	61937
#	95820
#	134477
#	172432
#	216432
#	234460
#	257425
#	270565
#
# Disc length: 4151 seconds
#
# Revision: 0
# Processed by: cddbd v1.4PL0 Copyright (c) Steve Scherf et al.
# Submitted via: CDex 1.50beta10
#
DISCID=8b103509
DTITLE=Harold Danko Quartet - Next Age
DYEAR=1994
DGENRE=Jazz
TTITLE0=Waiting Time
TTITLE1=For Bud
TTITLE2=Ice Mirror
TTITLE3=Gregarious Solitude
TTITLE4=Silk Lady
TTITLE5=Next Age
TTITLE6=Rhythm's Child
TTITLE7=Luz Caverna
TTITLE8=Subindo
EXTD=YEAR: 1994
EXTT0=
EXTT1=
EXTT2=
EXTT3=
EXTT4=
EXTT5=
EXTT6=
EXTT7=
EXTT8=
PLAYORDER=
